<svg id="Layer_1" data-name="Layer 1" xmlns="http://www.w3.org/2000/svg" viewBox="0 0 1159.98 1290.4"><path d="M1292.8,1140.4q-30.71,29.52-31.19,85.77A502.49,502.49,0,0,0,1390.76,1112a129.26,129.26,0,0,0-20.36-1.56Q1324,1110.4,1292.8,1140.4Z" transform="translate(-420.02 -300)"/><path d="M738.4,1226.18q-.48-56.25-30.78-85.78-30.81-30-78-30a129.42,129.42,0,0,0-20.38,1.56A502.57,502.57,0,0,0,738.4,1226.18Z" transform="translate(-420.02 -300)"/><path d="M1261.6,1033.6v48H1276q13.59-23.2,42.4-41.2t82.4-18a179.43,179.43,0,0,1,44.38,5.45A497.78,497.78,0,0,0,1500,800c0-276.14-223.86-500-500-500S500,523.86,500,800a497.78,497.78,0,0,0,54.82,227.85,179.59,179.59,0,0,1,44.4-5.45q36,0,60.4,8.4t39.6,21.2q15.18,12.8,23.2,27.2h14.4V870.4h100.8V1273a497.15,497.15,0,0,0,112,24.46V1033.6h100.8v263.89a498,498,0,0,0,112-24.46V1033.6Zm-215.2-64q-18.4,17.6-46.4,17.6-27.19,0-46-17.6t-18.8-46.4q0-28.8,18.8-46.41t46-17.59q28,0,46.4,17.59t18.4,46.41Q1064.8,952,1046.4,969.6Z" transform="translate(-420.02 -300)"/><path d="M738.42,1228v8q0,57.6-31.2,87.6t-77.6,30q-46.41,0-77.6-30t-31.2-87.6v-8q0-57.6,31.2-87.6A104.36,104.36,0,0,1,609.24,1112a500.94,500.94,0,0,1-54.42-84.11,174,174,0,0,0-44.4,18.15q-40.8,23.6-65.6,69.2T420,1225.6v12.8q0,64.8,24.8,110.4t66,69.2a175,175,0,0,0,88.4,23.6q54.39,0,82.8-18.4t42-40.8h14.4v48h99.2V1273a498.27,498.27,0,0,1-99.22-46.85C738.41,1226.78,738.42,1227.38,738.42,1228Z" transform="translate(-420.02 -300)"/><path d="M949.6,1297.49V1430.4h100.8V1297.49q-24.86,2.49-50.4,2.51T949.6,1297.49Z" transform="translate(-420.02 -300)"/><path d="M1555.2,1115.2q-24.81-45.6-65.6-69.2a173.88,173.88,0,0,0-44.42-18.15,500.94,500.94,0,0,1-54.42,84.11A104.45,104.45,0,0,1,1448,1140.4q31.2,30,31.2,87.6v8q0,57.6-30.8,87.6t-78,30q-46.41,0-77.6-30t-31.2-87.6v-8c0-.62,0-1.22,0-1.83A497.67,497.67,0,0,1,1162.4,1273V1590.4h100.8V1384.8h14.4a133.27,133.27,0,0,0,23.6,26.8q14.79,13.2,39.2,21.6t60.4,8.4a174.4,174.4,0,0,0,88.8-23.6q40.8-23.6,65.6-69.2t24.8-110.4v-12.8Q1580,1160.8,1555.2,1115.2Z" transform="translate(-420.02 -300)"/></svg>